<?xml version="1.0" encoding="iso-8859-1"?>
<!-- Generator: Adobe Illustrator 19.0.0, SVG Export Plug-In . SVG Version: 6.00 Build 0)  -->
<svg version="1.1" id="Layer_1" xmlns="http://www.w3.org/2000/svg" xmlns:xlink="http://www.w3.org/1999/xlink" x="0px" y="0px"
	 viewBox="0 0 504.4 504.4" style="enable-background:new 0 0 504.4 504.4;" xml:space="preserve">
<circle style="fill:#324A5E;" cx="252.2" cy="252.2" r="252.2"/>
<path style="fill:#E6E9EE;" d="M350.6,105.3H153.8c-13,0-23.5,10.5-23.5,23.5v246.7c0,13,10.5,23.5,23.5,23.5h196.7
	c13,0,23.5-10.5,23.5-23.5V128.8C374.1,115.8,363.6,105.3,350.6,105.3z"/>
<path style="fill:#ACB3BA;" d="M186.8,105.3h-34c-12.4,0-22.5,10.1-22.5,22.5v248.9c0,12.4,10.1,22.5,22.5,22.5h34V105.3z"/>
<g>
	<path style="fill:#FF7058;" d="M298.1,169c0,15.5-10.5,32.9-23.5,32.9s-23.5-17.4-23.5-32.9s10.5-23.1,23.5-23.1
		C287.6,145.9,298.1,153.5,298.1,169z"/>
	<path style="fill:#FF7058;" d="M327,241.9c-14.9,6.3-32.9,10.3-52.4,10.3s-37.5-4.1-52.4-10.3c8.3-17.2,28.7-33.3,52.4-33.3
		C298.3,208.6,318.7,224.7,327,241.9z"/>
</g>
<g>
	<rect x="216.1" y="287.8" style="fill:#CED5E0;" width="116.9" height="14.1"/>
	<rect x="216.1" y="319.7" style="fill:#CED5E0;" width="116.9" height="14.1"/>
	<rect x="216.1" y="351.5" style="fill:#CED5E0;" width="70.1" height="14.1"/>
</g>
<g>
</g>
<g>
</g>
<g>
</g>
<g>
</g>
<g>
</g>
<g>
</g>
<g>
</g>
<g>
</g>
<g>
</g>
<g>
</g>
<g>
</g>
<g>
</g>
<g>
</g>
<g>
</g>
<g>
</g>
</svg>
