<?xml version="1.0" encoding="iso-8859-1"?>
<!-- Generator: Adobe Illustrator 19.0.0, SVG Export Plug-In . SVG Version: 6.00 Build 0)  -->
<svg version="1.1" id="Layer_1" xmlns="http://www.w3.org/2000/svg" xmlns:xlink="http://www.w3.org/1999/xlink" x="0px" y="0px"
	 viewBox="0 0 504.4 504.4" style="enable-background:new 0 0 504.4 504.4;" xml:space="preserve">
<circle style="fill:#84DBFF;" cx="252.2" cy="252.2" r="252.2"/>
<g>
	<path style="fill:#FFFFFF;" d="M465.3,238.9c-4.5-10.6-18.6,4.6-36.9,24.2c2-2.1,3.9-4.3,5.8-6.6c18.6-21.6,23.9-55.5,17.6-65.3
		c-6.5-10.1-17.3,7.1-30.6,29.9c1.5-2.5,2.9-5.1,4.2-7.7c13.4-24.9,11.8-59.1,3.5-67.2c-8.4-8.3-15.5,9.3-23.1,32.8
		c0.9-2.6,1.6-5.3,2.4-8c7.4-25.5-1-55.9-10.7-60.7c-9.7-4.9-13.7,11.2-15.7,31.7c-5,54.7-41.7,90.5-79.1,81.6v85.6
		c41.4,22.8,90.6,20.2,133-12.7C458.2,279.6,469.6,249.1,465.3,238.9z"/>
	<path style="fill:#FFFFFF;" d="M39.1,238.9c4.5-10.6,18.6,4.6,36.9,24.2c-2-2.1-3.9-4.3-5.8-6.6c-18.6-21.6-23.9-55.5-17.6-65.3
		c6.5-10.1,17.3,7.1,30.6,29.9c-1.5-2.5-2.9-5.1-4.2-7.7c-13.5-24.9-11.8-59-3.5-67.2c8.4-8.3,15.5,9.3,23.1,32.8
		c-0.9-2.6-1.6-5.3-2.4-8c-7.4-25.5,1-55.9,10.7-60.7c9.7-4.9,13.7,11.2,15.7,31.7c5,54.7,41.7,90.5,79.1,81.6v85.6
		c-41.4,22.8-90.6,20.2-133-12.7C46.2,279.6,34.8,249.1,39.1,238.9z"/>
</g>
<path style="fill:#324A5E;" d="M316.2,190.4h-128c-6.1,0-11.1,4.9-11.1,11.1v196c0,6.1,4.9,11.1,11.1,11.1h128
	c6.1,0,11.1-4.9,11.1-11.1v-196C327.3,195.4,322.3,190.4,316.2,190.4z"/>
<rect x="193.4" y="216.8" style="fill:#54C0EB;" width="117.6" height="152.7"/>
<g>
	<circle style="fill:#ACB3BA;" cx="252.2" cy="388.8" r="9.2"/>
	<path style="fill:#ACB3BA;" d="M272.5,206.8h-23.7c-1.6,0-2.8-1.3-2.8-2.8l0,0c0-1.6,1.3-2.8,2.8-2.8h23.7c1.6,0,2.8,1.3,2.8,2.8
		l0,0C275.3,205.6,274,206.8,272.5,206.8z"/>
	<path style="fill:#ACB3BA;" d="M237.9,206.8h-6c-1.6,0-2.8-1.3-2.8-2.8l0,0c0-1.6,1.3-2.8,2.8-2.8h6c1.6,0,2.8,1.3,2.8,2.8l0,0
		C240.7,205.6,239.5,206.8,237.9,206.8z"/>
</g>
<g>
</g>
<g>
</g>
<g>
</g>
<g>
</g>
<g>
</g>
<g>
</g>
<g>
</g>
<g>
</g>
<g>
</g>
<g>
</g>
<g>
</g>
<g>
</g>
<g>
</g>
<g>
</g>
<g>
</g>
</svg>
